<svg width="58" height="58" viewBox="0 0 58 58" fill="none" xmlns="http://www.w3.org/2000/svg">
<circle cx="29" cy="29" r="28.5" fill="#CED1D9" stroke="#CED1D9"/>
<path d="M29.0002 29.0002C30.6006 29.0002 32.1355 28.3645 33.2672 27.2328C34.3989 26.1011 35.0347 24.5662 35.0347 22.9658C35.0347 21.3653 34.3989 19.8304 33.2672 18.6987C32.1355 17.567 30.6006 16.9313 29.0002 16.9313C27.3997 16.9313 25.8648 17.567 24.7331 18.6987C23.6015 19.8304 22.9657 21.3653 22.9657 22.9658C22.9657 24.5662 23.6015 26.1011 24.7331 27.2328C25.8648 28.3645 27.3997 29.0002 29.0002 29.0002ZM29.0002 32.0175C22.9536 32.0175 18.0295 36.0727 18.0295 41.0692C18.0295 41.4071 18.295 41.6727 18.6329 41.6727H39.3674C39.7053 41.6727 39.9709 41.4071 39.9709 41.0692C39.9709 36.0727 35.0467 32.0175 29.0002 32.0175Z" fill="#E6E8EC"/>
</svg>
