<svg width="24" height="24" viewBox="0 0 24 24" fill="none" xmlns="http://www.w3.org/2000/svg">
<path d="M17.25 10.18V12.81C17.25 12.98 17.24 13.14 17.22 13.3C17.07 15.07 16.02 15.95 14.1 15.95H13.84C13.7587 15.9511 13.6787 15.9706 13.606 16.007C13.5333 16.0433 13.4697 16.0957 13.42 16.16L12.63 17.21C12.28 17.68 11.72 17.68 11.37 17.21L10.58 16.16C10.4722 16.0386 10.3218 15.9634 10.16 15.95H9.9C7.8 15.95 6.75 15.43 6.75 12.8V10.17C6.75 8.25002 7.64 7.20002 9.4 7.05002C9.56 7.03002 9.72 7.02002 9.89 7.02002H14.09C16.2 7.04002 17.25 8.09002 17.25 10.18V10.18Z" stroke="white" stroke-width="1.5" stroke-miterlimit="10" stroke-linecap="round" stroke-linejoin="round"/>
<path d="M12 22C17.523 22 22 17.523 22 12C22 6.477 17.523 2 12 2C6.477 2 2 6.477 2 12C2 17.523 6.477 22 12 22Z" stroke="white" stroke-width="1.5" stroke-miterlimit="10" stroke-linecap="round" stroke-linejoin="round"/>
</svg>
