<svg width="24" height="24" viewBox="0 0 24 24" fill="none" xmlns="http://www.w3.org/2000/svg">
<path d="M8 12.2H15M8 16.2H12.38M10 6H14C16 6 16 5 16 4C16 2 15 2 14 2H10C9 2 8 2 8 4C8 6 9 6 10 6Z" stroke="white" stroke-width="1.5" stroke-miterlimit="10" stroke-linecap="round" stroke-linejoin="round"/>
<path d="M16 4.02002C19.33 4.20002 21 5.43002 21 10V16C21 20 20 22 15 22H9C4 22 3 20 3 16V10C3 5.44002 4.67 4.20002 8 4.02002" stroke="white" stroke-width="1.5" stroke-miterlimit="10" stroke-linecap="round" stroke-linejoin="round"/>
<path d="M19 15C16.79 15 15 16.79 15 19C15 19.75 15.21 20.46 15.58 21.06C15.9325 21.6525 16.4333 22.143 17.033 22.4831C17.6326 22.8233 18.3106 23.0014 19 23C20.46 23 21.73 22.22 22.42 21.06C22.79 20.46 23 19.75 23 19C23 16.79 21.21 15 19 15ZM21.07 18.57L18.94 20.54C18.8 20.67 18.61 20.74 18.43 20.74C18.24 20.74 18.05 20.67 17.9 20.52L16.91 19.53C16.7705 19.3889 16.6923 19.1984 16.6923 19C16.6923 18.8016 16.7705 18.6111 16.91 18.47C17.2 18.18 17.68 18.18 17.97 18.47L18.45 18.95L20.05 17.47C20.35 17.19 20.83 17.21 21.11 17.51C21.39 17.81 21.37 18.28 21.07 18.57Z" fill="white"/>
<path d="M18.9401 20.5401L21.0701 18.5701C21.3701 18.2801 21.3901 17.8101 21.1101 17.5101C20.8301 17.2101 20.3501 17.1901 20.0501 17.4701L18.4501 18.9501L17.9701 18.4701C17.6801 18.1801 17.2001 18.1801 16.9101 18.4701C16.7706 18.6112 16.6924 18.8016 16.6924 19.0001C16.6924 19.1985 16.7706 19.3889 16.9101 19.5301L17.9001 20.5201C18.0501 20.6701 18.2401 20.7401 18.4301 20.7401C18.6101 20.7401 18.8001 20.6701 18.9401 20.5401Z" fill="#1D203A"/>
</svg>
