<svg width="24" height="24" viewBox="0 0 24 24" fill="none" xmlns="http://www.w3.org/2000/svg">
<path d="M15.46 17.48C15.55 17.17 15.59 16.83 15.59 16.47V15.6M15.59 15.6V12.4C15.59 10.36 14.23 9 12.19 9H5.4C5.26 9 5.13 9.01 5 9.02V6.25C5 3.7 6.7 2 9.25 2H17.75C20.3 2 22 3.7 22 6.25V11.35C22 12.62 21.58 13.69 20.83 14.43C20.09 15.18 19.02 15.6 17.75 15.6H15.59Z" stroke="white" stroke-width="1.5" stroke-miterlimit="10" stroke-linecap="round" stroke-linejoin="round"/>
<path d="M15.59 12.4V16.47C15.59 16.83 15.55 17.17 15.46 17.48C15.09 18.95 13.87 19.87 12.19 19.87H9.47L6.45 21.88C6.34876 21.9493 6.23046 21.9895 6.10796 21.9963C5.98547 22.003 5.86346 21.9761 5.75521 21.9184C5.64695 21.8606 5.5566 21.7743 5.49398 21.6688C5.43135 21.5633 5.39885 21.4427 5.4 21.32V19.87C4.38 19.87 3.53 19.53 2.94 18.94C2.34 18.34 2 17.49 2 16.47V12.4C2 10.5 3.18 9.19 5 9.02C5.13 9.01 5.26 9 5.4 9H12.19C14.23 9 15.59 10.36 15.59 12.4V12.4Z" stroke="white" stroke-width="1.5" stroke-miterlimit="10" stroke-linecap="round" stroke-linejoin="round"/>
</svg>
