<svg width="100" height="16" viewBox="0 0 100 16" fill="none" xmlns="http://www.w3.org/2000/svg">
<g clip-path="url(#clip0_297_10572)">
<path d="M37.1391 0.230644C38.6786 0.230644 42.1057 -0.55521 42.5591 1.19463C42.9493 2.71394 41.7472 3.30072 40.5872 3.54171C38.6997 3.91892 35.705 2.77681 33.9967 3.65697C32.5626 4.39043 32.3517 8.23588 32.0459 9.65042C31.6136 11.6413 31.1496 12.49 33.4695 12.5005C34.6294 12.5005 35.2937 12.5738 35.7682 11.4736C36.6435 9.48277 34.9563 10.0591 34.3974 8.88552C33.8702 7.75389 35.0828 6.32888 35.9581 6.03549C36.8544 5.74211 40.8403 5.65828 41.3359 6.6537C41.821 7.63863 40.3236 12.4481 39.8913 13.4016C39.0688 15.1933 37.951 15.5181 36.0424 15.6963C33.828 15.9058 31.0442 16.1678 28.8508 15.6229C24.886 14.6485 27.4273 8.34066 28.1022 5.6478C28.5134 4.00275 28.8508 1.98048 30.3798 0.932674C32.2041 -0.314215 35.0617 0.220166 37.1285 0.220166L37.1391 0.230644Z" fill="white"/>
<path d="M18.401 15.8009C16.2076 15.7695 13.7401 15.7799 12.538 13.611C11.4203 11.5782 12.5486 8.3929 13.0442 6.29729C14.0249 2.08511 15.5539 0.261924 20.1303 0.220012C24.0741 0.188578 27.5433 1.55073 26.9528 5.98295C26.4361 9.83887 25.582 15.3084 20.7208 15.6647C19.8351 15.7275 18.9598 15.8428 18.3904 15.8114L18.401 15.8009ZM20.2463 3.55204C19.4976 3.5206 18.6435 3.57299 18.3799 4.70462C17.9897 6.37063 16.5767 9.48262 16.988 11.1696C17.3359 12.6051 19.4554 13.1185 20.6259 12.0183C21.6804 11.0229 21.9651 6.87358 22.0917 5.45904C22.2182 3.90829 21.9757 3.55204 20.2569 3.56251L20.2463 3.55204Z" fill="white"/>
<path d="M57.8914 0.230545C59.2095 0.230545 62.5733 -0.450529 63.3853 0.974487C64.4187 2.80815 62.0777 3.48922 60.8545 3.54161C59.2833 3.61496 56.4046 2.92341 55.1181 3.85595C53.083 5.33336 55.0865 6.12969 56.5522 6.15065C57.7649 6.17161 60.6647 5.61627 61.7087 6.62216C62.605 7.48136 61.8774 9.22072 61.6454 10.1847C60.5804 14.6379 58.9775 15.6962 54.3062 15.8219C53.0513 15.8533 48.9283 16.3877 48.0636 15.4237C47.315 14.575 47.7578 13.0766 48.7069 12.5947C50.4257 11.725 53.199 12.9195 55.0549 12.5004C56.6893 12.1231 57.6173 10.4362 55.8457 9.70271C54.264 9.04259 52.0074 10.2685 50.373 9.45124C48.5698 8.53965 49.3607 6.45451 49.7086 4.86185C50.7315 0.115286 53.4731 0.230545 57.8914 0.230545Z" fill="white"/>
<path d="M69.1847 12.1859C68.2252 12.1859 67.487 12.0183 66.7067 12.7308C65.9158 13.4538 66.1056 14.6902 65.125 15.3293C64.0283 16.0419 61.2339 16.1571 61.2234 14.7111C61.2234 13.7576 62.5731 11.9345 62.9738 11.1486C63.7436 9.6188 64.5239 8.09948 65.2937 6.56969C66.4642 4.24356 67.2972 0.670539 70.3025 0.188548C71.1777 0.0523331 73.4765 -0.104838 74.2357 0.544802C75.132 1.3097 74.9633 3.47866 75.0898 4.52646C75.2902 6.15056 75.4905 7.77466 75.6909 9.38828C75.8702 10.7923 76.5661 12.9613 76.3236 14.3235C76.0389 15.8637 73.3499 16.6077 72.1795 15.256C71.589 14.5749 72.1478 13.4642 71.726 12.7727C71.1883 11.8925 70.2709 12.1754 69.1953 12.1754L69.1847 12.1859ZM70.7454 4.3169C70.2076 5.36471 69.7436 6.22391 69.3324 7.10407C68.9949 7.82705 68.4255 8.1414 69.0687 8.77008C69.3324 9.03203 70.6821 8.99012 70.9352 8.73865C71.6311 8.09948 71.0301 5.2285 70.7348 4.30643L70.7454 4.3169Z" fill="white"/>
<path d="M6.17953 15.7904C3.60659 15.7904 1.6558 16.2305 0.485322 13.6005C-0.516437 11.3582 0.263881 9.21018 0.748943 6.93644C1.09692 5.29138 0.991474 1.03729 2.76301 0.251436C3.32188 0.0104407 5.04069 0.0628311 5.62066 0.220002C6.86495 0.565778 6.77004 0.733427 6.58024 2.06414C6.19008 4.76748 5.38867 7.46034 4.78761 10.1322C4.39746 11.8716 4.16547 12.406 6.11626 12.4898C7.79289 12.5632 10.9458 11.6411 11.1461 13.6424C11.452 16.5134 8.00379 15.7904 6.17953 15.7904Z" fill="white"/>
<path d="M82.8086 15.801C80.2779 15.801 78.9598 16.1467 77.61 13.8416C76.3868 11.7564 77.3042 9.46173 77.7682 7.25086C78.0951 5.71058 78.2005 1.47745 79.4975 0.471551C80.5626 -0.345737 83.6206 -0.0628296 83.8842 1.1631C84.0951 2.20043 83.2937 4.03409 83.0722 5.07142C82.777 6.44405 82.4712 7.81667 82.1654 9.1893C82.0178 9.87037 81.2691 11.5993 81.7331 12.2175C82.197 12.8357 84.2005 12.4794 84.9176 12.4794C86.552 12.4794 88.4817 12.5318 87.4062 14.7427C86.6259 16.3458 84.4009 15.8114 82.8192 15.8114L82.8086 15.801Z" fill="white"/>
<path d="M94.0391 15.7799C91.2974 15.7799 90.243 16.1257 88.9038 13.6424C87.67 11.3582 88.7245 9.01109 89.2307 6.63257C89.5681 5.02942 89.5575 0.911544 91.3185 0.219992C92.4046 -0.209609 94.9354 -0.0733939 95.199 1.10015C95.3888 1.93839 94.6929 3.56249 94.5136 4.40074C94.2184 5.76289 93.9336 7.11456 93.6278 8.47671C93.4697 9.18921 92.5312 11.463 92.9003 12.1126C93.3115 12.8565 95.0092 12.5003 95.7052 12.5003C97.2025 12.5003 100.102 12.3641 98.6683 14.8264C97.7931 16.3248 95.5576 15.8113 94.0391 15.8113V15.7799Z" fill="white"/>
<path d="M46.7348 0.199133C47.8314 0.199133 48.6328 0.0210057 48.9914 1.03738C49.4237 2.24235 48.0634 5.44864 47.8103 6.59075C47.2936 8.91688 46.8508 11.264 46.2602 13.5796C45.7646 15.5076 45.016 16.021 42.8437 15.7591C41.0195 15.539 41.2093 14.8579 41.5045 13.2967C41.9263 11.1277 42.4219 8.95879 42.8964 6.80031C43.2128 5.36482 43.2971 2.09566 44.204 0.974509C44.921 0.0838741 45.4799 0.199133 46.7242 0.199133H46.7348Z" fill="white"/>
</g>
<defs>
<clipPath id="clip0_297_10572">
<rect width="99.0476" height="16" fill="white"/>
</clipPath>
</defs>
</svg>
