<svg width="20" height="20" viewBox="0 0 20 20" fill="none" xmlns="http://www.w3.org/2000/svg">
<path d="M9.99999 1.66663C5.39999 1.66663 1.66666 5.39996 1.66666 9.99996C1.66666 14.6 5.39999 18.3333 9.99999 18.3333C14.6 18.3333 18.3333 14.6 18.3333 9.99996C18.3333 5.39996 14.6 1.66663 9.99999 1.66663ZM14.375 10.675C14.375 10.8166 14.3667 10.95 14.35 11.0833C14.225 12.5583 13.35 13.2916 11.75 13.2916H11.5333C11.4656 13.2926 11.3989 13.3088 11.3383 13.3391C11.2777 13.3694 11.2247 13.413 11.1833 13.4666L10.525 14.3416C10.2333 14.7333 9.76666 14.7333 9.47499 14.3416L8.81666 13.4666C8.72685 13.3654 8.60149 13.3028 8.46666 13.2916H8.24999C6.50832 13.2916 5.62499 12.8583 5.62499 10.6666V8.47496C5.62499 6.87496 6.36666 5.99996 7.83332 5.87496C7.96666 5.86663 8.10832 5.86663 8.24999 5.86663H11.75C13.4917 5.86663 14.375 6.74163 14.375 8.49163V10.675Z" fill="#CCCCCC"/>
</svg>
