<svg width="20" height="20" viewBox="0 0 20 20" fill="none" xmlns="http://www.w3.org/2000/svg">
<path d="M14.1667 2.91663H5.83332C3.33332 2.91663 1.66666 4.16663 1.66666 7.08329V12.9166C1.66666 15.8333 3.33332 17.0833 5.83332 17.0833H14.1667C16.6667 17.0833 18.3333 15.8333 18.3333 12.9166V7.08329C18.3333 4.16663 16.6667 2.91663 14.1667 2.91663ZM14.5583 7.99163L11.95 10.075C11.4 10.5166 10.7 10.7333 9.99999 10.7333C9.29999 10.7333 8.59166 10.5166 8.04999 10.075L5.44166 7.99163C5.31416 7.88579 5.23255 7.73473 5.21391 7.57008C5.19527 7.40543 5.24104 7.23995 5.34166 7.10829C5.55832 6.84163 5.94999 6.79163 6.21666 7.00829L8.82499 9.09163C9.45832 9.59996 10.5333 9.59996 11.1667 9.09163L13.775 7.00829C14.0417 6.79163 14.4417 6.83329 14.65 7.10829C14.8667 7.37496 14.825 7.77496 14.5583 7.99163Z" fill="#CCCCCC"/>
</svg>
